<?xml version="1.0" encoding="utf-8"?>
<!-- Generator: Adobe Illustrator 19.0.1, SVG Export Plug-In . SVG Version: 6.00 Build 0)  -->
<svg version="1.1" id="safety_x5F_icons_1_" xmlns="http://www.w3.org/2000/svg" xmlns:xlink="http://www.w3.org/1999/xlink"
	 x="0px" y="0px" viewBox="0 0 128 128" style="enable-background:new 0 0 128 128;" xml:space="preserve">
<style type="text/css">
	.st0{fill:#141414;}
	.st1{display:none;fill-rule:evenodd;clip-rule:evenodd;fill:#141414;}
	.st2{display:none;fill:#141414;}
	.st3{display:none;}
	.st4{display:inline;fill:#141414;}
	.st5{display:inline;}
	.st6{fill-rule:evenodd;clip-rule:evenodd;fill:#141414;}
</style>
<g id="row3_1_">
	<path id="medical_case_1_" class="st0" d="M70.5,52h-8.7v13h-13v8.7h13v13h8.7v-13h13v-8.7h-13V52z M117.6,21.7H10.4
		c-5.1,0-9.3,4.2-9.3,9.3v78.8c0,5.1,4.2,9.3,9.3,9.3h9.3v9h18.6v-9h51.3v9h18.6v-9h9.3c5.1,0,9.3-4.1,9.3-9.3V30.9
		C126.9,25.8,122.7,21.7,117.6,21.7z M66.2,97.8C50.6,97.8,38,85.2,38,69.7c0-15.5,12.6-28.1,28.2-28.1c15.6,0,28.2,12.6,28.2,28.1
		C94.4,85.2,81.7,97.8,66.2,97.8z M53.2,8.7h26v10.8h6.5V0H46.6v19.5h6.5V8.7z"/>
	<path id="radioactive_2_" class="st1" d="M43.5,69.7c0.2,3.9,0.5,7.2,2,10.1c1.5,3.1,4.1,5.2,7.5,7.4l-23.5,37.4
		c-10.1-5.9-17.8-13.4-22.9-23c-5.3-9.8-7.3-20.4-6.4-32H43.5z M73.9,50.9c-3.5-1.8-6.6-3-9.9-3s-6.4,1.3-9.9,3L31.9,12.8
		c9.9-6.1,20.2-9.4,31.2-9.4c11,0,21.3,3.3,31.2,9.4L73.9,50.9z M64,58.5c5.9,0,10.6,4.6,10.6,10.5c0,5.9-4.6,10.5-10.6,10.5
		c-5.9,0-10.6-4.6-10.6-10.5C53.4,63.1,58.1,58.5,64,58.5z M127.8,69.7c0.9,11.6-1.1,22.1-6.4,32c-5.1,9.6-12.8,17.1-22.9,23
		L75,87.2c3.3-2.2,6-4.4,7.5-7.5c1.5-2.8,1.8-6.1,2-10H127.8z"/>
	<path id="traffic_x5F_sign_x5F_forbidden_2_" class="st1" d="M22.8,15.1c-27,22.8-30.5,63.2-7.7,90.2c22.8,27,63.2,30.5,90.2,7.7
		c27-22.8,30.5-63.2,7.7-90.2C90.2-4.3,49.8-7.7,22.8,15.1z M26.3,95.8C10.5,77,11.1,49.9,26.6,31.9l62.7,74.5
		C68.9,118.6,42.1,114.6,26.3,95.8z M101.4,96.1L38.7,21.7c20.4-12.2,47.2-8.2,63,10.6C117.5,51,116.9,78.1,101.4,96.1z"/>
	<path id="acid_1_" class="st2" d="M59.3,55.3l-1.6,6.2l4.3,1.2L72,25l-4.3-1.2l-0.8,2.9L20.9,14.4C12,12,2.9,17.2,0.6,26
		c-2.3,8.8,2.9,17.8,11.8,20.2l46.1,12.3L59.3,55.3z M32.3,25.9c-7.3-2-17.2-8.7-27.4,1.2c1.7-6.4,8.5-10.1,15.1-8.3l45.7,12.3
		l-6.2,23.1c0,0-2.8-0.8-7.1-1.9C39.6,48.8,32.3,25.9,32.3,25.9z M121.8,93.9c9.3,0,7.1-9.2,0.6-9.2c-9.7,0-29.8,0-29.8,0v-0.6
		c0,0,21.2-1.2,27.9-1.9c4.7-0.5,5.4-8.2-0.3-8.3c-12.2-0.3-24.4-0.6-36.6-0.9v-0.3c2.5-3.1,8.3-3.3,10.3-7c0-0.3,3.1-7.7-7.9-4.8
		c-1.7,0.5-3.6,1-5.7,1.7c1.5,2.9,2.9,6,2.9,7.6c0,3.6-3,6.5-6.7,6.5c-3.7,0-6.7-2.9-6.7-6.5c0-1,0.5-2.6,1.3-4.4
		c-12.9,4.7-26.4,10.6-26.4,10.6l-6.3-0.3l0.3,34.8l6-0.3c0,0,55.2,3.3,63.4,3.5c8.2,0.2,7-7.9,0-7.7c-6.5,0.2-15.7-1.2-15.7-1.2
		v-0.6c0,0,21.1-0.3,27.6-0.3c6.3,0,6.9-8,0.3-8c-10.4,0-27.9-0.8-27.9-0.8v-0.6C92.3,94.8,116,93.9,121.8,93.9z M64.4,93.2
		c-2.9,0-5.2-2.3-5.2-5.1c0-2.8,5.2-11.3,5.2-11.3s5.2,8.5,5.2,11.3C69.7,90.9,67.3,93.2,64.4,93.2z M76.4,55.8
		c0,0-3.5,5.6-5.4,10.1c3.2-1.2,6.4-2.3,9.3-3.2C78.4,59.1,76.4,55.8,76.4,55.8z"/>
	<path id="face_x5F_sheild_1_" class="st2" d="M57.3,54.3c0,0-6.5-3.1-28.3-9.4c-2.2-0.6-17-4.5-17-4.5L28.8,128
		c0,0,25.8-21,27.7-46.8C57.7,65.7,57.3,54.3,57.3,54.3z M50.9,78.1c-2.2,22.6-18.5,37-18.5,37L19.3,49.2l31.8,9.6
		C51.1,58.8,52.2,64.5,50.9,78.1z M84.6,1.7c-23.4-6.3-48.3,5.6-60.2,26c-0.6,1-5.9,9.9-5.9,9.9s4.5,1.2,7.1,1.9
		c14.7,4,34.5,10.9,34.5,10.9s0.6,15.7,0,33.3c-0.5,14.5-18.5,38.8-18.5,38.8s58.4-6.7,71.9-61.9C120.5,32.3,112.8,9.2,84.6,1.7z"/>
</g>
<g id="row2_1_" class="st3">
	<path id="fire_x5F_extinguisher_1_" class="st4" d="M77,22.5v-9.5h9.4V4.4l-11,0.2V0H64.8v3h-29v6.1h18.3l-17.6,8.3l-0.7,11.6h4.3
		V24l23.1-10.9v9.5c0,0-15.3-0.4-15.2,8c-0.2,3.6-0.7,97.5-0.7,97.5h44.8c0,0,0-94.2,0-97.5C92.2,21.9,77,22.5,77,22.5z M74.8,109.1
		h-26V46.5h26V109.1z"/>
	<path id="gas_x5F_mask_1_" class="st4" d="M73,85.2c1.8,0,3.2-1.5,3.2-3.2c0-1.8-1.4-3.2-3.2-3.2s-3.2,1.5-3.2,3.2
		C69.7,83.8,71.2,85.2,73,85.2z M34.7,38.3c-3.9,1-4.1,7.4-4.1,8.1c0,4-0.1,13.8,7.2,12.9c2.5-0.3,13.1-3.4,15.9-5.3
		c4.2-2.8,4.8-9.1,3.2-14.8C55.8,35.7,41,36.7,34.7,38.3z M73,103.7c1.8,0,3.2-1.5,3.2-3.2c0-1.8-1.4-3.2-3.2-3.2s-3.2,1.5-3.2,3.2
		C69.7,102.3,71.2,103.7,73,103.7z M73,94.5c1.8,0,3.2-1.5,3.2-3.2c0-1.8-1.4-3.2-3.2-3.2s-3.2,1.5-3.2,3.2
		C69.7,93,71.2,94.5,73,94.5z M63.8,97.2c-1.8,0-3.2,1.5-3.2,3.2c0,1.8,1.4,3.2,3.2,3.2s3.2-1.5,3.2-3.2
		C67,98.7,65.5,97.2,63.8,97.2z M63.8,78.7c-1.8,0-3.2,1.5-3.2,3.2c0,1.8,1.4,3.2,3.2,3.2S67,83.8,67,82
		C67,80.2,65.5,78.7,63.8,78.7z M63.8,88c-1.8,0-3.2,1.5-3.2,3.2c0,1.8,1.4,3.2,3.2,3.2S67,93,67,91.2C67,89.4,65.5,88,63.8,88z
		 M54.5,78.7c-1.8,0-3.2,1.5-3.2,3.2c0,1.8,1.4,3.2,3.2,3.2c1.8,0,3.2-1.5,3.2-3.2C57.8,80.2,56.3,78.7,54.5,78.7z M54.5,97.2
		c-1.8,0-3.2,1.5-3.2,3.2c0,1.8,1.4,3.2,3.2,3.2c1.8,0,3.2-1.5,3.2-3.2C57.8,98.7,56.3,97.2,54.5,97.2z M127.3,82.3l-15.8-8
		c-0.7-0.3-1.5-0.1-1.9,0.5l-18.6,31.6c-0.4,0.6-0.1,1.4,0.5,1.7l15.8,8c0.7,0.3,1.5,0.1,1.9-0.5L127.8,84
		C128.2,83.4,128,82.6,127.3,82.3z M54.5,88c-1.8,0-3.2,1.5-3.2,3.2c0,1.8,1.4,3.2,3.2,3.2c1.8,0,3.2-1.5,3.2-3.2
		C57.8,89.4,56.3,88,54.5,88z M106.7,76.2l-2.3-2.1c0,0,7.1-62.3-41.4-62.3c-46.6,0-38.8,62.3-38.8,62.3l-2.5,2.2l15.4,26.5l1.7-1.7
		c0,0,6.4,4.9,6.8,5.1c4.8,2.8,10.1,4.5,15.7,4.8c-9.8-1.4-17.4-9.8-17.4-20c0-11.2,9.1-20.2,20.2-20.2c11.2,0,20.2,9,20.2,20.2
		c0,9.1-6,16.7-14.2,19.3c4.3-0.9,8.5-2.7,12.2-5.1c0.7-0.4,7.1-4.1,7.1-4.1l1.7,1.7L106.7,76.2z M52.9,56.9
		c-5.2,2.6-7.2,3.1-12.7,4.3c-5.6,1.2-8.4-0.4-9.8-3.1c-2.5-4.9-1.6-13.5-1.6-13.8c0.2-1.3,0.2-7.8,5.9-8.8
		c6.7-1.1,16.9-0.9,16.9-0.9s7-0.2,7.7,5.2C59.9,44.9,61.9,52.4,52.9,56.9z M84.9,61.1c-5.5-1.2-7.8-2.1-12.9-4.6
		c-9-4.4-6.9-11.6-6.2-16.6c0.8-5.3,7.7-5.2,7.7-5.2s9.8-0.2,16.4,0.8c4.5,0.7,5.5,4.8,6,7.2c0.3,1.4,1.3,10.4-1.2,15.3
		C93.4,60.7,90.5,62.3,84.9,61.1z M90.1,38.2c-6.3-1.6-21.1-2.2-21.7,1c-1.2,6.1-1.5,11.2,2.8,14.3c2.1,1.5,13.9,5.4,15.8,5.6
		c8.1,0.7,7.7-9.6,7.3-13C94.2,45.4,93.9,39.2,90.1,38.2z M18.4,74.8c-0.4-0.6-1.2-0.8-1.9-0.5l-15.8,8C0,82.6-0.2,83.4,0.2,84
		l18.6,31.6c0.4,0.6,1.2,0.8,1.9,0.5l15.8-8c0.7-0.3,0.9-1.1,0.5-1.7L18.4,74.8z"/>
	<path id="helmet_1_" class="st4" d="M123.2,89.7c0-17.7-7.7-33.7-19.9-44.6c-3.1,8.2-10.8,25.9-10.8,25.9h-3.6
		c0,0,8.6-30.5,7.2-31.4c-14.6-8.1-20.7-8.5-24.1-9C72,35,72,65.6,72,65.6c0,4.4-3.6,8-8,8c-4.4,0-8-3.6-8-8V30.2
		c0,0-14.6,3.2-24,9.7c2.2,9.1,7.1,31.2,7.1,31.2h-3.6c0,0-10.7-25.8-12-24.6C12.1,57.3,4.8,72.7,4.8,89.7H0v8h128v-8H123.2z"/>
	<g id="boot_1_" class="st5">
		<path id="icon_12_" class="st6" d="M128,18.2H72.2c0,0,3.1,69.6,1.5,71.9c-1.6,2.3-5,1.8-5,1.8l-22.3-2.2
			c-8.2,0-14.8,6.6-14.8,14.8c0,19.8,33.3,15.4,38.6,15.4c10.9,0,29.8-7,29.8-7v7h21L128,18.2z"/>
		<path id="icon_10_" class="st6" d="M30.1,97.9c-7.2,0.5-13.5-0.3-17.8-2.5c-14.4-7.5-2.8-18.9,3.3-18c6.8,1.1,31.3,5.8,31.7-2.6
			c0.5-10.7-1.7-61.9-1.7-61.9h45.6v1.8h5.3v-7H40.6c0,0,3.1,62.5,1.5,64.9c-1.6,2.3-5,1.8-5,1.8l-22.3-2.2C6.6,72.1,0,78.8,0,87
			c0,13.8,18.4,16.1,30,15.8C30,99.2,30.1,100.5,30.1,97.9z"/>
	</g>
	<path id="google_1_" class="st4" d="M124.3,61.4c6.4-38-124.8-38.1-121.2,0c-1.4,0-3.1,0-3.1,0v10.1c0,0,0.8,0,5.1,0
		c2.9,13,9,23.5,18.5,23.6c6.5,0.1,15.8,0.6,23.6-1.7c9.3-2.8,14.6-24.1,15.2-25.3c2.2-6.1,3.9-0.5,4,0.1
		c1.8,5.6,6.5,22.8,14.4,25.2c7.8,2.3,17.1,1.8,23.5,1.7c9.3-0.2,15.4-10.8,18.2-23.8c2.9,0.4,5.6,0.3,5.6,0.3V61.4
		C128,61.4,128.2,61.3,124.3,61.4z M117.3,61.6c-2.2,13.4-4.5,27.2-14.3,27.5c-2.1,0.1-14.6,1.5-20-1.7C70.1,79.7,75,60,64,60
		c-8.4,0-8.9,24.1-19.5,27.3c-6.1,1.8-14.6,1.3-19.7,1.3c-9,0-12.2-11.8-14.4-25.2C5,31.8,122.3,31.8,117.3,61.6z M21,62.3
		l14.3,14.3l2.4-2.4L23.4,59.9L21,62.3z M13.7,63.3c0,7.7,4.6,21.3,12.9,21.3c4.8,0,10,0.7,15.5-1.4c9.1-3.5,9.6-27.1,21.6-27.1
		c0.8,0,2,0,1.9,0c12,0,11.6,23,18.6,27.1c5.1,3,12.1,1.7,16.8,1.7c8.3,0,12.9-15.4,12.9-23.2C118.3,35.7,9,35.5,13.7,63.3z
		 M111.2,61.4c-1.8,9.8-4.6,20.2-11.8,20.2c-6,0-10.9,1.1-13.5-1.7C77.8,71.3,79.8,53,64,53c-14.4,0-12.2,18.5-21.9,26.9
		c-2.7,2.4-8.2,1.7-13.5,1.7c-7.2,0-10.5-8.9-12.2-18.7C12.5,39.3,114.8,41.6,111.2,61.4z M25.8,59.9L38.9,73l2.4-2.4L28.2,57.5
		L25.8,59.9z"/>
</g>
<g id="row1_1_" class="st3">
	<path id="gloves_1_" class="st4" d="M127.2,22c0.2-9-8.7-7.7-8.5,0c0.2,7.1-1.3,17.3-1.3,17.3h-0.7c0,0-0.4-23.2-0.4-30.3
		c0-6.9-8.9-7.6-8.9-0.3c0,11.4-0.9,30.6-0.9,30.6h-0.7c0,0-1-26-1-32.3c0-10.2-10.1-7.8-10.1-0.7c0,10.7,0,32.7,0,32.7h-0.7
		c0,0-1.3-23.3-2.1-30.7c-0.6-5.2-9-5.9-9.2,0.3c-0.3,13.4-0.6,26.8-1,40.2h-0.3c-3.5-2.8-3.7-9.1-7.7-11.2c-0.3,0-8.5-3.4-5.3,8.7
		c4.1,15.2,17.2,45.5,17.2,45.5L85.2,128l38.5-0.4l-0.3-36.1C123.3,91.6,127,31,127.2,22z M54.3,37.4c-4,2.1-4.2,8.5-7.7,11.2h-0.3
		c-0.3-13.4-0.7-26.8-1-40.2c-0.2-6.2-8.6-5.5-9.2-0.3c-0.8,7.4-2.1,30.7-2.1,30.7h-0.7c0,0,0-22,0-32.7c0-7.1-10.1-9.5-10.1,0.7
		c0,6.3-1,32.3-1,32.3h-0.7c0,0-0.9-19.2-0.9-30.6c0-7.3-8.9-6.6-8.9,0.3c0,7.1-0.4,30.3-0.4,30.3h-0.7c0,0-1.5-10.1-1.3-17.3
		c0.2-7.6-8.7-9-8.5,0C1,31,4.7,91.6,4.7,91.6l-0.3,36.1l38.5,0.4l-0.4-36.4c0,0,13.1-30.2,17.2-45.5C62.8,34,54.6,37.4,54.3,37.4z"
		/>
	<path id="jacket_1_" class="st4" d="M67.4,65.1h29.2V4.5h-4.5v1.1L67.4,42.7V65.1z M2.2,65.1H18V4.5h-6.7v40.4L0,56.1v67.4h60.6
		V78.6H2.2V65.1z M42.7,92.1v13.5H2.2V92.1H42.7z M116.8,44.9V4.5H110v60.6h15.7v13.5H67.4v44.9H128V56.1L116.8,44.9z M125.8,105.5
		H85.3V92.1h40.4V105.5z M35.9,4.5h-4.5v60.6h29.2V42.7L35.9,5.6V4.5z M65.1,11.2c-10.6,0-22.5-4.5-22.5-4.5l20.2,31.4h2.2L85.3,6.7
		C85.3,6.7,75.9,11.2,65.1,11.2z"/>
	<path id="earmuffs_1_" class="st4" d="M27.8,58.1c-3.3,0-5.9,2.6-5.9,5.9v-0.8h-5.1C7.5,63.2,0,70.7,0,80v16.8
		c0,9.3,7.5,16.8,16.8,16.8h5.1v-0.8c0,3.3,2.6,5.9,5.9,5.9c3.3,0,5.9-2.6,5.9-5.9V64C33.7,60.7,31,58.1,27.8,58.1z M111.2,63.2
		h-5.1V64c0-3.3-2.6-5.9-5.9-5.9c-3.3,0-5.9,2.6-5.9,5.9v48.8c0,3.3,2.6,5.9,5.9,5.9c3.3,0,5.9-2.6,5.9-5.9v0.8h5.1
		c9.3,0,16.8-7.5,16.8-16.8V80C128,70.7,120.5,63.2,111.2,63.2z M102.2,32.3c4.6,6.2,7.2,13.6,7.2,21.6c0,2.6,0,7.6,0,7.6h5.1
		c0,0,0-4.9,0-7.6c0-24.6-22.2-44.6-49.7-44.6s-49.7,20-49.7,44.6c0,3.2,0,7.6,0,7.6h5.1c0,0,0-4.7,0-7.6c0-7.3,2.2-14.1,6.1-20
		c6.5,6.6,17.1-12.9,39.4-12.9C83.8,21.1,95.9,37.4,102.2,32.3z"/>
	<path id="Traffic_x5F_cone_1_" class="st4" d="M87.6,40.4H42.7l-6.7,29.2h58.4L87.6,40.4z M80.8,0H49.4l-4.5,24.7h40.4L80.8,0z
		 M96.6,83.1H33.7l-6.7,29.2h76.4L96.6,83.1z M4.5,116.8V128h119v-11.2H4.5z"/>
	<path id="alert_1_" class="st4" d="M64,90.7c3.9,0,5.5-3,5.5-6.7l1.6-22.4c0-3.7-3.2-6.7-7.1-6.7c-3.9,0-7.1,3-7.1,6.7L58.5,84
		C58.5,87.7,60.1,90.7,64,90.7z M64,0L0,128h128L64,0z M64,22.4l47.8,95.5H16.2L64,22.4z M64,93.5c-3.9,0-7.1,3.2-7.1,7.1
		s3.2,7.1,7.1,7.1c3.9,0,7.1-3.2,7.1-7.1S67.9,93.5,64,93.5z"/>
</g>
</svg>
